<svg version="1" xmlns="http://www.w3.org/2000/svg" width="538.667" height="538.667" viewBox="0 0 404.000000 404.000000"><path d="M0 202v190h404V12H0v190zM183.6 79.4l5.8 15.9-2.7 2.3c-3.1 2.6-8.5 3.9-12.3 3l-2.7-.7.7-11.7c.8-14.7 1.6-24.3 2.2-26.1.9-2.9 3.2 1.3 9 17.3zm-1.4 23.1c8.4-.1 7.6 1.2-1.4 2.1-6.9.7-13.8-.1-13.8-1.6 0-1.2 3.1-1.8 6-1.1 1.4.3 5.5.6 9.2.6zm-21.6 31c1.9 2.9 1.4 6-1.7 9.8-3.9 5.1-13.9 2.6-13.9-3.4 0-2.5 5.2-7.6 8.3-8.2 4.6-.9 5.7-.6 7.3 1.8zm-13.8 19.3c.4 2.3-.6 3.4-9.1 9.7-2.7 2-5.1 3.4-5.4 3.1-1.1-1 3.2-10.1 6.1-12.8 3.7-3.5 7.9-3.5 8.4 0zm64.3 2.1c5 5.1 3.3 12.7-4.4 18.5-7.7 5.9-19 1.9-21.7-7.8-1.4-5.1-.1-10.9 2.8-12.6.9-.5 5.9-1 11-1 9 0 9.5.1 12.3 2.9zm-42.2 3.6c5.7 6.5 3.3 15.5-5.3 19.6-5.7 2.8-10.7 2-15.3-2.6-2.8-2.8-3.3-4-3.3-8.2 0-2.7.6-5.7 1.3-6.7 1.3-1.8 12.2-5.4 16.8-5.5 1.9-.1 3.6 1 5.8 3.4zm-34.7 26.9c1.3 1.3 4.3 3.5 6.7 4.9 3.5 1.9 4.7 3.2 5.6 6.5 1.7 5.7 2.7 14.4 1.9 16.5-1.9 5.1-12-2.4-14.7-10.9-1.7-5.1-3.4-19.4-2.4-19.4.4 0 1.6 1.1 2.9 2.4zm7.8 127.5c0 6.9 2.7 22 4.3 23.9.6.8 3.1 2.4 5.6 3.7 23.7 11.9 72.7 10.7 99.3-2.5 3.3-1.7 6.6-3 7.4-3 3.2 0 16.4 5 16.4 6.3 0 2.5-24.4 9.9-41.5 12.6-60.6 9.6-117.7-2.3-120.2-25.2-.5-3.9-.1-4.8 2.7-8.1 1.8-2 5.3-4.9 7.8-6.3 4-2.4 15.5-7.1 17.5-7.2.4-.1.7 2.6.7 5.8zm-56.6-2.1c.9 1.5-3.3 7.1-7.1 9.5-2.1 1.2-8.3 4.5-13.8 7.2-7.1 3.5-11.7 6.6-15.9 10.7-3.3 3.2-6.1 5.6-6.4 5.4-.2-.2.6-4.1 1.9-8.6 1.7-6.4 2.9-9 5.7-11.8 4.6-4.5 16.8-10.1 25.7-11.7 8.8-1.6 9.3-1.7 9.9-.7zm-46.5 31.8c-.6 4.9-1.9 12-3 15.9-1.3 4.8-1.9 10.2-1.9 17.2 0 9.4-.2 10.3-1.9 10.3-1.6 0-2-1.3-3.1-9.5-1.5-11-.8-19.2 2.2-28 2-5.8 7.6-16 8.4-15.2.2.2-.1 4.3-.7 9.3zm81.5 12.8c7.3 4.6 8.6 7.8 8.6 20.5V386h-12.8l-.6-12.7c-.3-7.1-.9-14.7-1.2-17.1-.3-2.3-.3-4.2 0-4.2.4 0 3.1 1.5 6 3.4z"/><path d="M197.4 161.4c-.8 2.2.3 4.9 1.9 4.3.6-.2 1.2-1.4 1.2-2.7 0-2.7-2.2-3.9-3.1-1.6zM158 167c0 2.5.4 3.1 1.8 2.8 1.1-.2 1.7-1.2 1.7-2.8 0-1.6-.6-2.6-1.7-2.8-1.4-.3-1.8.3-1.8 2.8z"/></svg>